<?xml version="1.0" encoding="utf-8"?>
<!-- Generator: Adobe Illustrator 24.3.0, SVG Export Plug-In . SVG Version: 6.00 Build 0)  -->
<svg version="1.1" id="Layer_1" xmlns="http://www.w3.org/2000/svg" xmlns:xlink="http://www.w3.org/1999/xlink" x="0px" y="0px"
	 viewBox="0 0 769.5 852.2" style="enable-background:new 0 0 769.5 852.2;" xml:space="preserve">
<style type="text/css">
	.st0{fill:#FFFFFF;}
</style>
<path class="st0" d="M579.2,491.8c13.8-18.2,22-40.9,22-65.5c0-59.9-48.6-108.5-108.5-108.5c0,0,0,0,0,0h-158v187.5v246.5h158h22.1
	c76.2,0,138-61.8,138-138C652.7,561,622.9,515,579.2,491.8z M393.6,376.9h99v0c27.3,0,49.5,22.2,49.5,49.5s-22.2,49.5-49.5,49.5h-99
	V376.9z M514.7,692.9H393.6v-158h121.1c43.6,0,79,35.4,79,79C593.7,657.5,558.3,692.9,514.7,692.9z"/>
<path class="st0" d="M334,159.8c50.1-0.2,94.7,22.9,123.8,59c8.8,10.9,24.2,13.7,36.4,6.7l1.1-0.6c15.5-8.9,19.5-29.6,8.2-43.5
	c-40-49.4-101.1-80.9-169.7-80.6c-119.8,0.5-218.1,100.9-216.1,220.7c1.9,114,91.7,206.6,204.6,213v-59.1
	c-81-6.3-144.9-73.7-145.6-156.1C175.8,232.1,246.7,160.2,334,159.8z"/>
</svg>
